<?xml version="1.0" standalone="no"?>
<!DOCTYPE svg PUBLIC "-//W3C//DTD SVG 20010904//EN"
 "http://www.w3.org/TR/2001/REC-SVG-20010904/DTD/svg10.dtd">
<svg version="1.0" xmlns="http://www.w3.org/2000/svg"
 width="36" height="27" viewBox="0 0 314.000000 238.000000"
 preserveAspectRatio="xMidYMid meet">

<g transform="translate(0.000000,238.000000) scale(0.100000,-0.100000)"
fill="#000000" stroke="none">
<path d="M2285 2202 c-26 -12 -48 -33 -62 -59 -22 -40 -28 -42 -307 -157
l-285 -116 -106 0 c-104 0 -107 -1 -136 -29 -28 -28 -29 -33 -29 -125 l0 -96
-50 0 c-54 0 -112 -19 -126 -41 -5 -8 -11 -72 -14 -144 l-5 -130 -388 -5 -389
-5 -19 -24 c-14 -18 -19 -39 -19 -90 0 -69 10 -91 42 -91 23 0 38 38 38 96 l0
44 379 0 380 0 28 24 c28 24 28 26 31 155 l4 131 282 0 282 0 62 -127 63 -128
-3 -235 -3 -235 -752 -3 -753 -2 0 74 c0 87 -12 126 -38 126 -35 0 -42 -21
-42 -118 0 -166 -11 -162 420 -162 l330 0 0 -40 0 -40 -237 0 c-218 0 -242 -2
-283 -21 -202 -91 -214 -366 -19 -474 l54 -30 869 -3 c981 -3 940 -6 1023 71
65 60 87 107 87 192 1 60 -3 78 -29 125 -33 60 -96 114 -153 130 -21 5 -145
10 -284 10 l-248 0 0 39 c0 37 1 39 41 44 23 3 52 15 65 28 l24 22 0 267 0
267 -61 124 c-61 125 -91 169 -116 169 -7 0 -13 6 -13 13 0 14 457 260 469
252 10 -6 313 -586 309 -590 -2 -1 -79 -35 -173 -75 -93 -40 -180 -82 -192
-93 -26 -23 -30 -55 -10 -80 20 -27 388 -187 431 -187 49 0 176 53 209 88 30
32 47 72 47 114 0 37 -267 675 -286 682 -19 7 -41 -2 -48 -21 -4 -8 27 -94 68
-192 66 -157 72 -177 58 -189 -9 -7 -21 -11 -26 -9 -13 4 -396 736 -396 757 0
51 69 79 103 43 8 -10 43 -84 78 -165 64 -154 84 -178 117 -144 14 14 12 26
-33 135 -91 225 -113 256 -185 267 -23 3 -49 -2 -75 -14z m-42 -252 c-4 -5
-102 -59 -217 -120 -161 -87 -211 -109 -217 -98 -5 7 -9 16 -9 20 0 4 -14 23
-31 42 l-31 36 34 15 c18 8 125 53 238 99 l205 85 18 -36 c10 -19 15 -39 10
-43z m-576 -167 c46 -21 73 -67 73 -120 l0 -43 -155 0 -155 0 0 74 c0 110 -4
106 107 106 68 0 105 -5 130 -17z m1126 -615 c39 -90 45 -141 23 -170 -13 -18
-135 -78 -158 -78 -14 0 -329 138 -341 150 -5 4 67 40 160 80 92 40 191 83
218 95 28 12 53 20 56 16 3 -3 22 -45 42 -93z m-993 -478 l0 -40 -315 0 -315
0 0 40 0 40 315 0 315 0 0 -40z m615 -132 c93 -51 129 -151 90 -245 -21 -50
-42 -72 -90 -94 -38 -18 -87 -19 -908 -19 -834 0 -869 1 -905 19 -54 28 -83
63 -98 120 -27 104 28 199 134 231 15 5 414 8 887 7 781 -2 863 -4 890 -19z"/>
<path d="M665 516 c-50 -23 -77 -60 -83 -114 -8 -89 49 -152 137 -152 176 0
189 256 14 276 -21 2 -51 -2 -68 -10z m99 -82 c40 -40 8 -114 -49 -114 -26 0
-65 43 -65 71 0 48 80 78 114 43z"/>
<path d="M2235 511 c-49 -30 -68 -58 -73 -109 -8 -89 49 -152 137 -152 148 0
193 195 60 262 -44 23 -86 23 -124 -1z m107 -78 c26 -23 24 -78 -4 -97 -33
-23 -64 -19 -87 10 -25 32 -26 52 -5 82 18 27 69 30 96 5z"/>
<path d="M893 482 c-8 -5 -12 -38 -12 -95 0 -75 3 -88 19 -97 24 -13 1179 -14
1213 -1 22 9 23 13 23 93 -1 45 -5 89 -9 96 -6 9 -140 12 -615 12 -334 0 -612
-4 -619 -8z m1167 -97 l0 -25 -550 0 -550 0 0 25 0 25 550 0 550 0 0 -25z"/>
<path d="M1322 1478 c-8 -8 -12 -50 -12 -122 l0 -110 78 -78 78 -78 191 0
c223 0 216 -3 221 104 3 69 2 74 -52 184 l-55 112 -219 0 c-156 0 -221 -3
-230 -12z m438 -138 c31 -61 40 -91 40 -130 l0 -50 -147 0 -147 0 -63 62 -63
62 0 62 c0 33 3 64 7 67 3 4 80 7 170 7 l163 0 40 -80z"/>
<path d="M580 1060 c-57 -113 -60 -143 -17 -148 26 -3 30 3 79 104 54 112 55
135 10 142 -18 3 -29 -13 -72 -98z"/>
<path d="M796 1138 c-8 -13 -34 -62 -57 -110 -34 -72 -39 -91 -29 -103 7 -8
22 -15 34 -15 31 0 132 201 116 230 -14 27 -46 25 -64 -2z"/>
<path d="M983 1148 c-6 -7 -32 -55 -57 -106 -52 -104 -54 -135 -8 -130 23 3
34 17 75 98 51 102 57 143 21 148 -11 2 -25 -3 -31 -10z"/>
<path d="M1333 1033 c-20 -7 -15 -51 6 -63 30 -16 107 -12 125 6 19 18 19 20
6 45 -9 15 -21 19 -68 18 -31 0 -63 -3 -69 -6z"/>
</g>
</svg>
